<svg xmlns="http://www.w3.org/2000/svg" viewBox="0 0 600 900"><defs><linearGradient id="g" x1="0" x2="1"><stop offset="0" stop-color="#fff" stop-opacity=".18"/><stop offset=".5" stop-color="#fff" stop-opacity=".72"/><stop offset="1" stop-color="#fff" stop-opacity=".12"/></linearGradient></defs><rect width="600" height="900" fill="#111"/><g transform="translate(155 55)"><rect x="92" width="106" height="92" rx="14" fill="#080808" stroke="#777" stroke-width="3"/><path d="M102 14h86M102 30h86M102 46h86M102 62h86" stroke="#777" stroke-width="3"/><path d="M70 88h150v52c0 28 52 48 58 105l17 480c2 35-21 61-56 61H31c-35 0-58-26-56-61l17-480c6-57 58-77 58-105V88Z" fill="url(#g)" stroke="#ddd" stroke-width="4"/><rect x="-2" y="255" width="254" height="235" rx="5" fill="#171717" stroke="#aaa" stroke-width="3"/><rect x="12" y="270" width="226" height="205" fill="#f5f5f5"/><text x="125" y="340" text-anchor="middle" font-family="Arial" font-size="28" font-weight="800" fill="#111">PURE</text><text x="125" y="370" text-anchor="middle" font-family="Arial" font-size="15" font-weight="700" fill="#111">CUSTOM CREATION</text><rect x="38" y="398" width="174" height="5" fill="#c62828"/></g></svg>